<svg width="51" height="31" viewBox="0 0 51 31" fill="none" xmlns="http://www.w3.org/2000/svg">
<path d="M16.44 30.2C16.0933 30.2 15.7467 30.0933 15.4 29.88C15.08 29.6667 14.8267 29.36 14.64 28.96L8.96 17.92H5.6V28.32C5.6 28.88 5.33333 29.3067 4.8 29.6C4.26667 29.8667 3.66667 30 3 30C2.36 30 1.76 29.8667 1.2 29.6C0.666667 29.3067 0.4 28.88 0.4 28.32V2.4C0.4 1.94667 0.546667 1.56 0.84 1.24C1.16 0.919999 1.57333 0.76 2.08 0.76H10C11.76 0.76 13.3467 1.01333 14.76 1.52C16.2 2.02667 17.3467 2.89333 18.2 4.12C19.0533 5.32 19.48 6.98666 19.48 9.12C19.48 10.6667 19.2533 11.9867 18.8 13.08C18.3467 14.1467 17.72 15.0133 16.92 15.68C16.1467 16.32 15.2533 16.8 14.24 17.12L19.52 26.84C19.5733 26.9467 19.6133 27.0667 19.64 27.2C19.6667 27.3067 19.68 27.4 19.68 27.48C19.68 27.9067 19.52 28.3333 19.2 28.76C18.88 29.1867 18.4667 29.5333 17.96 29.8C17.48 30.0667 16.9733 30.2 16.44 30.2ZM5.6 13.84H10C11.3067 13.84 12.3467 13.52 13.12 12.88C13.8933 12.24 14.28 11.1467 14.28 9.6C14.28 8 13.8933 6.89333 13.12 6.28C12.3467 5.64 11.3067 5.32 10 5.32H5.6V13.84ZM24.3744 30C23.8944 30 23.401 29.9067 22.8944 29.72C22.3877 29.5333 21.961 29.28 21.6144 28.96C21.2677 28.64 21.0944 28.2667 21.0944 27.84C21.0944 27.76 21.1077 27.6267 21.1344 27.44L28.8544 2.28C29.041 1.69333 29.4544 1.25333 30.0944 0.96C30.761 0.666665 31.4677 0.519998 32.2144 0.519998C32.9877 0.519998 33.6944 0.666665 34.3344 0.96C34.9744 1.25333 35.3877 1.69333 35.5744 2.28L43.2944 27.44C43.3477 27.6267 43.3744 27.76 43.3744 27.84C43.3744 28.24 43.1877 28.6133 42.8144 28.96C42.4677 29.28 42.041 29.5333 41.5344 29.72C41.0277 29.9067 40.5344 30 40.0544 30C39.6277 30 39.2544 29.9333 38.9344 29.8C38.641 29.64 38.441 29.36 38.3344 28.96L36.8144 23.64H27.6144L26.1344 28.96C26.0277 29.36 25.8144 29.64 25.4944 29.8C25.1744 29.9333 24.801 30 24.3744 30ZM28.7344 19.56H35.6944L32.2144 7.28L28.7344 19.56ZM47.5431 30.24C46.7698 30.24 46.1165 29.9733 45.5831 29.44C45.0765 28.88 44.8231 28.24 44.8231 27.52C44.8231 26.7733 45.0765 26.1333 45.5831 25.6C46.1165 25.0667 46.7698 24.8 47.5431 24.8C48.2631 24.8 48.8898 25.0667 49.4231 25.6C49.9565 26.1333 50.2231 26.7733 50.2231 27.52C50.2231 28.24 49.9565 28.88 49.4231 29.44C48.8898 29.9733 48.2631 30.24 47.5431 30.24Z" fill="#444444"/>
</svg>
